<svg width="30" height="30" viewBox="0 0 30 30" fill="none" xmlns="http://www.w3.org/2000/svg">
<g clip-path="url(#clip0_236_277)">
<path d="M3.3316 21.6684C1.8699 19.1084 1.29014 16.139 1.68156 13.2172C2.07298 10.2954 3.41389 7.58331 5.49785 5.49836L15.0004 15.0002L5.49848 24.5021C7.27034 26.2726 9.50186 27.5126 11.9411 28.082C14.3804 28.6514 16.9303 28.5276 19.3029 27.7245C21.6755 26.9214 23.7764 25.4711 25.3684 23.5372C26.9603 21.6034 27.98 19.263 28.3123 16.7802C28.6445 14.2975 28.2761 11.7714 27.2486 9.48695C26.2212 7.20253 24.5756 5.25083 22.4976 3.85216C20.4196 2.4535 17.992 1.66357 15.4888 1.57157C12.9857 1.47956 10.5067 2.08914 8.3316 3.33148" stroke="black" stroke-width="2" stroke-linecap="round" stroke-linejoin="round"/>
</g>
<defs>
<clipPath id="clip0_236_277">
<rect width="30" height="30" fill="white"/>
</clipPath>
</defs>
</svg>
