<svg width="33" height="33" viewBox="0 0 33 33" fill="none" xmlns="http://www.w3.org/2000/svg">
<path d="M28.875 8.9375V19.25H26.125V10.3125L19.25 5.5L12.375 10.3125V12.375H9.625V8.9375L19.25 2.0625L28.875 8.9375ZM21.3125 9.625H19.9375V11H21.3125V9.625ZM18.5625 9.625H17.1875V11H18.5625V9.625ZM21.3125 12.375H19.9375V13.75H21.3125V12.375ZM18.5625 12.375H17.1875V13.75H18.5625V12.375ZM26.125 22H23.375C23.375 20.35 22.3438 18.865 20.8038 18.2875L12.3338 15.125H1.375V30.25H9.625V28.27L19.25 30.9375L30.25 27.5V26.125C30.25 23.8425 28.4075 22 26.125 22ZM4.125 27.5V17.875H6.875V27.5H4.125ZM19.2087 28.0637L9.625 25.41V17.875H11.8387L19.8413 20.8587C20.3088 21.0375 20.625 21.4912 20.625 22C20.625 22 17.8888 21.9312 17.4625 21.7938L14.19 20.7075L13.3237 23.32L16.5962 24.4062C17.2975 24.64 18.0262 24.7638 18.7687 24.7638H26.125C26.6612 24.7638 27.1425 25.08 27.3625 25.5337L19.2087 28.0637Z" fill="black"/>
</svg>
