<svg width="33" height="31" viewBox="0 0 33 31" fill="none" xmlns="http://www.w3.org/2000/svg">
<g clip-path="url(#clip0_236_149)">
<path d="M29.3906 4.0691C29.0361 3.85361 28.6306 3.72325 28.2098 3.68946C27.789 3.65568 27.3659 3.71951 26.9775 3.87535L14.2519 8.58347C13.9506 8.69865 13.6284 8.75787 13.3031 8.75785H5.15625C4.47249 8.75785 3.81673 9.01301 3.33324 9.4672C2.84975 9.92139 2.57812 10.5374 2.57812 11.1797V11.3735H0V17.186H2.57812V17.4378C2.59428 18.07 2.87302 18.6712 3.35477 19.1129C3.83652 19.5546 4.48308 19.8018 5.15625 19.8016L8.25 25.9628C8.45949 26.3777 8.7893 26.7287 9.20156 26.9755C9.61382 27.2222 10.0918 27.3548 10.5806 27.3578H11.88C12.5602 27.3527 13.2107 27.0953 13.6897 26.6417C14.1687 26.188 14.4375 25.575 14.4375 24.936V20.0341L26.9775 24.7422C27.2859 24.8575 27.6149 24.9167 27.9469 24.9166C28.4619 24.9088 28.9634 24.7607 29.3906 24.4903C29.7299 24.2752 30.0097 23.9872 30.2069 23.6503C30.4042 23.3134 30.5132 22.9372 30.525 22.5528V6.06472C30.5231 5.67047 30.4188 5.28261 30.2211 4.93484C30.0234 4.58706 29.7383 4.28987 29.3906 4.0691ZM11.8594 11.1797V17.4378H5.15625V11.1797H11.8594ZM11.8594 24.936H10.56L8.02313 19.8016H11.8594V24.936ZM15.2006 17.7285C14.9557 17.6109 14.7004 17.5137 14.4375 17.4378V11.0441C14.6979 10.9936 14.9532 10.9223 15.2006 10.831L27.9469 6.06472V22.4947L15.2006 17.7285ZM30.5869 11.8578V16.7016C31.2706 16.7016 31.9264 16.4464 32.4099 15.9922C32.8934 15.5381 33.165 14.922 33.165 14.2797C33.165 13.6374 32.8934 13.0214 32.4099 12.5672C31.9264 12.113 31.2706 11.8578 30.5869 11.8578Z" fill="black"/>
</g>
<defs>
<clipPath id="clip0_236_149">
<rect width="33" height="31" fill="white"/>
</clipPath>
</defs>
</svg>
