<svg width="36" height="36" viewBox="0 0 36 36" fill="none" xmlns="http://www.w3.org/2000/svg">
<path d="M26.998 30L32.734 24.264C32.9029 24.0954 32.9978 23.8666 32.998 23.628V15.75C32.998 15.1533 32.761 14.581 32.339 14.159C31.9171 13.7371 31.3448 13.5 30.748 13.5C30.1513 13.5 29.579 13.7371 29.1571 14.159C28.7351 14.581 28.498 15.1533 28.498 15.75V22.5" stroke="black" stroke-width="2" stroke-linecap="round" stroke-linejoin="round"/>
<path d="M26.998 24L28.285 22.713C28.3527 22.6455 28.4063 22.5653 28.4428 22.477C28.4794 22.3887 28.4982 22.2941 28.498 22.1985C28.4978 22.0636 28.4601 21.9314 28.3891 21.8167C28.3182 21.7021 28.2167 21.6094 28.096 21.549L27.4315 21.2175C26.8686 20.936 26.2313 20.8387 25.61 20.9394C24.9887 21.0401 24.4148 21.3336 23.9695 21.7785L22.627 23.121C22.0644 23.6835 21.7482 24.4464 21.748 25.242V30M8.99805 30L3.26205 24.264C3.09322 24.0954 2.99826 23.8666 2.99805 23.628V15.75C2.99805 15.1533 3.2351 14.581 3.65706 14.159C4.07901 13.7371 4.65131 13.5 5.24805 13.5C5.84478 13.5 6.41708 13.7371 6.83904 14.159C7.26099 14.581 7.49805 15.1533 7.49805 15.75V22.5" stroke="black" stroke-width="2" stroke-linecap="round" stroke-linejoin="round"/>
<path d="M8.99805 24L7.71105 22.713C7.6435 22.6454 7.58992 22.5652 7.55337 22.4769C7.51683 22.3887 7.49803 22.294 7.49805 22.1985C7.49805 21.924 7.65405 21.6735 7.90005 21.549L8.56455 21.2175C9.12751 20.936 9.76475 20.8387 10.3861 20.9394C11.0074 21.0401 11.5813 21.3336 12.0265 21.7785L13.369 23.121C13.9317 23.6835 14.2479 24.4464 14.248 25.242V30M20.4985 18H15.4975V14.5005H11.998V9.4995H15.4975V6H20.4985V9.4995H23.998V14.5005H20.4985V18Z" stroke="black" stroke-width="2" stroke-linecap="round" stroke-linejoin="round"/>
</svg>
