<svg width="1440" height="1212" viewBox="0 0 1440 1212" fill="none" xmlns="http://www.w3.org/2000/svg">
<g filter="url(#filter0_f_810_4803)">
<path d="M1290.5 407.5C1290.5 521.823 1197.82 614.5 1083.5 614.5C969.177 614.5 876.5 521.823 876.5 407.5C876.5 293.177 969.177 200.5 1083.5 200.5C1197.82 200.5 1290.5 293.177 1290.5 407.5Z" fill="#FDF7FF"/>
<circle cx="184.5" cy="721.5" r="290.5" fill="#FDF7FF"/>
<path d="M294.5 554.5C294.5 703.065 174.065 823.5 25.5 823.5C-123.065 823.5 -243.5 703.065 -243.5 554.5C-243.5 405.935 -123.065 285.5 25.5 285.5C174.065 285.5 294.5 405.935 294.5 554.5Z" fill="#25CBE1" fill-opacity="0.5"/>
</g>
<defs>
<filter id="filter0_f_810_4803" x="-443.5" y="0.5" width="2654.5" height="1211.5" filterUnits="userSpaceOnUse" color-interpolation-filters="sRGB">
<feFlood flood-opacity="0" result="BackgroundImageFix"/>
<feBlend mode="normal" in="SourceGraphic" in2="BackgroundImageFix" result="shape"/>
<feGaussianBlur stdDeviation="100" result="effect1_foregroundBlur_810_4803"/>
</filter>
</defs>
</svg>
