<svg width="612" height="695" viewBox="0 0 612 695" fill="none" xmlns="http://www.w3.org/2000/svg">
<circle cx="347.041" cy="347.333" r="238.625" transform="rotate(-174.662 347.041 347.333)" stroke="#475569" stroke-width="2.85521" stroke-miterlimit="3.8637" stroke-dasharray="2.86 28.55"/>
<g filter="url(#filter0_f_17_640)">
<circle cx="347.041" cy="347.333" r="204.263" transform="rotate(-174.662 347.041 347.333)" fill="url(#paint0_linear_17_640)"/>
</g>
<path d="M128.471 462.803C129.009 457.043 134.115 452.81 139.875 453.348C145.635 453.886 149.868 458.992 149.33 464.752C148.792 470.512 143.686 474.745 137.926 474.207C132.166 473.669 127.933 468.563 128.471 462.803Z" fill="#2AC6E2"/>
<circle cx="207.244" cy="154.544" r="6.11042" transform="rotate(-174.662 207.244 154.544)" fill="#963BFA"/>
<circle cx="578.783" cy="400.548" r="10.475" transform="rotate(-174.662 578.783 400.548)" fill="#617FEE"/>
<defs>
<filter id="filter0_f_17_640" x="0.00430298" y="0.296783" width="694.073" height="694.073" filterUnits="userSpaceOnUse" color-interpolation-filters="sRGB">
<feFlood flood-opacity="0" result="BackgroundImageFix"/>
<feBlend mode="normal" in="SourceGraphic" in2="BackgroundImageFix" result="shape"/>
<feGaussianBlur stdDeviation="71.3802" result="effect1_foregroundBlur_17_640"/>
</filter>
<linearGradient id="paint0_linear_17_640" x1="142.779" y1="143.071" x2="602.436" y2="482.315" gradientUnits="userSpaceOnUse">
<stop stop-color="#C1EBF3"/>
<stop offset="1" stop-color="#E4D0F4"/>
</linearGradient>
</defs>
</svg>
