<svg width="200" height="199" viewBox="0 0 200 199" fill="none" xmlns="http://www.w3.org/2000/svg">
<path d="M181 99.2041C181 143.939 144.735 180.204 100 180.204C55.2649 180.204 19 143.939 19 99.2041C19 54.469 55.2649 18.2041 100 18.2041C144.735 18.2041 181 54.469 181 99.2041ZM59.4855 99.2041C59.4855 121.58 77.6244 139.719 100 139.719C122.376 139.719 140.515 121.58 140.515 99.2041C140.515 76.8285 122.376 58.6896 100 58.6896C77.6244 58.6896 59.4855 76.8285 59.4855 99.2041Z" fill="#F4F4F4"/>
<path d="M100.885 22.209C100.911 20 102.723 18.2195 104.928 18.3539C117.735 19.1346 130.194 22.9483 141.267 29.5046C153.49 36.7412 163.594 47.0647 170.567 59.4394C177.54 71.814 181.137 85.8048 180.996 100.008C180.868 112.876 177.677 125.509 171.71 136.868C170.683 138.824 168.221 139.452 166.319 138.329L138.339 121.823C136.437 120.7 135.824 118.255 136.754 116.25C139.167 111.046 140.455 105.373 140.512 99.6062C140.583 92.5019 138.784 85.504 135.296 79.3145C131.808 73.1249 126.754 67.9613 120.641 64.3417C115.678 61.4034 110.159 59.5663 104.457 58.9352C102.261 58.6922 100.486 56.9013 100.512 54.6923L100.885 22.209Z" fill="url(#paint0_linear_17_1227)"/>
<path d="M181.205 99.2041C181.205 143.939 144.94 180.204 100.205 180.204C55.47 180.204 19.2051 143.939 19.2051 99.2041C19.2051 54.469 55.47 18.2041 100.205 18.2041C144.94 18.2041 181.205 54.469 181.205 99.2041ZM59.6905 99.2041C59.6905 121.58 77.8295 139.719 100.205 139.719C122.581 139.719 140.72 121.58 140.72 99.2041C140.72 76.8285 122.581 58.6896 100.205 58.6896C77.8295 58.6896 59.6905 76.8285 59.6905 99.2041Z" fill="#F4F4F4"/>
<path d="M101.09 22.209C101.116 20 102.928 18.2195 105.133 18.3539C117.94 19.1346 130.399 22.9483 141.472 29.5046C153.695 36.7412 163.799 47.0647 170.772 59.4394C177.745 71.814 181.342 85.8048 181.201 100.008C181.073 112.876 177.882 125.509 171.915 136.868C170.888 138.824 168.426 139.452 166.524 138.329L138.544 121.823C136.642 120.7 136.029 118.255 136.959 116.25C139.373 111.046 140.66 105.373 140.717 99.6062C140.788 92.5019 138.989 85.504 135.501 79.3145C132.013 73.1249 126.959 67.9613 120.846 64.3417C115.883 61.4034 110.364 59.5663 104.662 58.9352C102.466 58.6922 100.691 56.9013 100.717 54.6923L101.09 22.209Z" fill="url(#paint1_linear_17_1227)"/>
<defs>
<linearGradient id="paint0_linear_17_1227" x1="157.275" y1="198.408" x2="16.5457" y2="20.7346" gradientUnits="userSpaceOnUse">
<stop stop-color="#1AD9DF"/>
<stop offset="1" stop-color="#A824FE"/>
</linearGradient>
<linearGradient id="paint1_linear_17_1227" x1="157.48" y1="198.408" x2="16.7508" y2="20.7346" gradientUnits="userSpaceOnUse">
<stop stop-color="#1AD9DF"/>
<stop offset="1" stop-color="#A824FE"/>
</linearGradient>
</defs>
</svg>
