<svg width="200" height="199" viewBox="0 0 200 199" fill="none" xmlns="http://www.w3.org/2000/svg">
<path d="M181.002 99.2041C181.002 143.939 144.737 180.204 100.002 180.204C55.2669 180.204 19.002 143.939 19.002 99.2041C19.002 54.469 55.2669 18.2041 100.002 18.2041C144.737 18.2041 181.002 54.469 181.002 99.2041ZM59.4874 99.2041C59.4874 121.58 77.6264 139.719 100.002 139.719C122.378 139.719 140.516 121.58 140.516 99.2041C140.516 76.8285 122.378 58.6896 100.002 58.6896C77.6264 58.6896 59.4874 76.8285 59.4874 99.2041Z" fill="#F4F4F4"/>
<path d="M21.7598 78.2395C33.338 35.0288 77.7533 9.38559 120.964 20.9639C164.175 32.5422 189.818 76.9575 178.24 120.168C166.661 163.379 122.246 189.022 79.0354 177.444C35.8246 165.866 10.1815 121.45 21.7598 78.2395ZM139.134 109.69C144.925 88.0767 132.099 65.861 110.486 60.0698C88.8725 54.2786 66.6569 67.1048 60.8657 88.7179C55.0745 110.331 67.9007 132.547 89.5138 138.338C111.127 144.129 133.343 131.303 139.134 109.69Z" fill="url(#paint0_linear_17_1235)"/>
<defs>
<linearGradient id="paint0_linear_17_1235" x1="157.275" y1="198.408" x2="16.5457" y2="20.7346" gradientUnits="userSpaceOnUse">
<stop stop-color="#1AD9DF"/>
<stop offset="1" stop-color="#A824FE"/>
</linearGradient>
</defs>
</svg>
