<svg width="200" height="199" viewBox="0 0 200 199" fill="none" xmlns="http://www.w3.org/2000/svg">
<path d="M181.002 99.2041C181.002 143.939 144.737 180.204 100.002 180.204C55.2669 180.204 19.002 143.939 19.002 99.2041C19.002 54.469 55.2669 18.2041 100.002 18.2041C144.737 18.2041 181.002 54.469 181.002 99.2041ZM59.4874 99.2041C59.4874 121.58 77.6264 139.719 100.002 139.719C122.378 139.719 140.516 121.58 140.516 99.2041C140.516 76.8285 122.378 58.6896 100.002 58.6896C77.6264 58.6896 59.4874 76.8285 59.4874 99.2041Z" fill="#F4F4F4"/>
<path d="M100.885 22.209C100.911 20 102.723 18.2195 104.928 18.3539C117.735 19.1346 130.194 22.9483 141.267 29.5046C153.49 36.7412 163.594 47.0647 170.567 59.4394C177.54 71.814 181.137 85.8048 180.996 100.008C180.855 114.212 176.981 128.128 169.764 140.362C162.546 152.596 152.239 162.716 139.875 169.709C127.511 176.701 113.526 180.32 99.3227 180.201C85.1191 180.082 71.1964 176.231 58.9514 169.032C47.8575 162.511 38.494 153.45 31.6171 142.618C30.4331 140.753 31.1149 138.306 33.0361 137.215L61.2873 121.179C63.2085 120.088 65.6343 120.775 66.909 122.58C70.2191 127.266 74.4962 131.208 79.4682 134.131C85.5929 137.731 92.5567 139.658 99.6611 139.717C106.765 139.776 113.76 137.967 119.945 134.469C126.129 130.972 131.284 125.909 134.894 119.79C138.504 113.671 140.442 106.71 140.512 99.6062C140.583 92.5019 138.784 85.504 135.296 79.3145C131.808 73.1249 126.754 67.9613 120.641 64.3417C115.678 61.4034 110.159 59.5663 104.457 58.9352C102.261 58.6922 100.486 56.9013 100.512 54.6923L100.885 22.209Z" fill="url(#paint0_linear_17_1231)"/>
<defs>
<linearGradient id="paint0_linear_17_1231" x1="157.275" y1="198.408" x2="16.5457" y2="20.7346" gradientUnits="userSpaceOnUse">
<stop stop-color="#1AD9DF"/>
<stop offset="1" stop-color="#A824FE"/>
</linearGradient>
</defs>
</svg>
