<svg width="86" height="85" viewBox="0 0 86 85" fill="none" xmlns="http://www.w3.org/2000/svg">
<circle cx="43" cy="42.5" r="42.5" fill="white"/>
<g clip-path="url(#clip0_17_1262)">
<path d="M50.5 18C50.9062 18 51.2578 18.1484 51.5547 18.4453L66.5547 33.4453C66.8516 33.7422 67 34.0938 67 34.5C67 34.9062 66.8516 35.2578 66.5547 35.5547L60.8594 41.25C61.25 41.6406 61.6328 42.0156 62.0078 42.375C62.3828 42.7344 62.7109 43.1016 62.9922 43.4766C63.2734 43.8516 63.5078 44.2734 63.6953 44.7422C63.8828 45.2109 63.9766 45.7344 63.9766 46.3125C63.9766 46.9375 63.8594 47.5312 63.625 48.0938C63.3906 48.6562 63.0703 49.1484 62.6641 49.5703C62.2578 49.9922 61.7812 50.3281 61.2344 50.5781C60.6875 50.8281 60.1016 50.9609 59.4766 50.9766C59.4453 51.6172 59.3125 52.2031 59.0781 52.7344C58.8438 53.2656 58.5312 53.7344 58.1406 54.1406C57.75 54.5469 57.2812 54.8672 56.7344 55.1016C56.1875 55.3359 55.6016 55.4609 54.9766 55.4766C54.9609 56.1016 54.8281 56.6875 54.5781 57.2344C54.3281 57.7812 53.9922 58.2578 53.5703 58.6641C53.1484 59.0703 52.6562 59.3984 52.0938 59.6484C51.5312 59.8984 50.9375 60.0156 50.3125 60C49.8125 60 49.3047 59.9141 48.7891 59.7422C48.6172 60.2266 48.3906 60.6641 48.1094 61.0547C47.8281 61.4453 47.4844 61.7891 47.0781 62.0859C46.6719 62.3828 46.2422 62.6094 45.7891 62.7656C45.3359 62.9219 44.8438 63 44.3125 63C43.9062 63 43.5469 62.9688 43.2344 62.9062C42.9219 62.8438 42.6328 62.7344 42.3672 62.5781C42.1016 62.4219 41.8359 62.25 41.5703 62.0625C41.3047 61.875 41.0312 61.6484 40.75 61.3828C40.2031 61.8828 39.6719 62.2734 39.1562 62.5547C38.6406 62.8359 37.9844 62.9844 37.1875 63C36.5625 63 35.9688 62.8828 35.4062 62.6484C34.8438 62.4141 34.3516 62.0938 33.9297 61.6875C33.5078 61.2812 33.1719 60.8047 32.9219 60.2578C32.6719 59.7109 32.5391 59.1172 32.5234 58.4766C31.9141 58.4609 31.3359 58.3359 30.7891 58.1016C30.2422 57.8672 29.7656 57.5469 29.3594 57.1406C28.9531 56.7344 28.6328 56.2578 28.3984 55.7109C28.1641 55.1641 28.0391 54.5859 28.0234 53.9766C27.3984 53.9609 26.8203 53.8359 26.2891 53.6016C25.7578 53.3672 25.2891 53.0469 24.8828 52.6406C24.4766 52.2344 24.1562 51.7578 23.9219 51.2109C23.6875 50.6641 23.5547 50.0859 23.5234 49.4766C22.8828 49.4609 22.2891 49.3281 21.7422 49.0781C21.1953 48.8281 20.7188 48.4922 20.3125 48.0703C19.9062 47.6484 19.5859 47.1641 19.3516 46.6172C19.1172 46.0703 19 45.4766 19 44.8359C19 44.1953 19.1172 43.5938 19.3516 43.0312C19.5859 42.4688 19.9297 41.9609 20.3828 41.5078L22.8672 39L19.4453 35.5547C19.1484 35.2578 19 34.9062 19 34.5C19 34.0938 19.1484 33.7422 19.4453 33.4453L34.4453 18.4453C34.7422 18.1484 35.0938 18 35.5 18C35.9062 18 36.2578 18.1484 36.5547 18.4453L39.6484 21.5391C39.8516 21.4766 40.2422 21.3438 40.8203 21.1406C41.3984 20.9375 42.0781 20.7109 42.8594 20.4609C43.6406 20.2109 44.4453 19.9375 45.2734 19.6406C46.1016 19.3438 46.8984 19.0781 47.6641 18.8438C48.4297 18.6094 49.0625 18.4062 49.5625 18.2344C50.0625 18.0625 50.375 17.9844 50.5 18ZM26.3125 40.5C25.8594 40.5 25.4688 40.6641 25.1406 40.9922L22.4922 43.6172C22.1641 43.9453 22 44.3438 22 44.8125C22 45.2812 22.1562 45.6719 22.4688 45.9844C22.7812 46.2969 23.1797 46.4609 23.6641 46.4766C24.1484 46.4766 24.5469 46.3203 24.8594 46.0078L27.5078 43.3828C27.8359 43.0547 28 42.6562 28 42.1875C28 41.7188 27.8359 41.3203 27.5078 40.9922C27.1797 40.6641 26.7812 40.5 26.3125 40.5ZM30.8125 45C30.5938 45 30.3828 45.0391 30.1797 45.1172C29.9766 45.1953 29.7891 45.3203 29.6172 45.4922L26.9922 48.1406C26.6641 48.4688 26.5 48.8672 26.5 49.3359C26.5 49.7891 26.6641 50.1719 26.9922 50.4844C27.3203 50.7969 27.7188 50.9609 28.1875 50.9766C28.4062 50.9766 28.6172 50.9375 28.8203 50.8594C29.0234 50.7812 29.2109 50.6641 29.3828 50.5078L32.0078 47.8594C32.3359 47.5312 32.5 47.1406 32.5 46.6875C32.5 46.2188 32.3359 45.8203 32.0078 45.4922C31.6797 45.1641 31.2812 45 30.8125 45ZM35.3125 49.5C34.8594 49.5 34.4688 49.6641 34.1406 49.9922L31.4922 52.6172C31.1641 52.9453 31 53.3438 31 53.8125C31 54.2812 31.1562 54.6719 31.4688 54.9844C31.7812 55.2969 32.1797 55.4609 32.6641 55.4766C33.1484 55.4766 33.5469 55.3203 33.8594 55.0078L36.5078 52.3828C36.8359 52.0547 37 51.6562 37 51.1875C37 50.7188 36.8359 50.3203 36.5078 49.9922C36.1797 49.6641 35.7812 49.5 35.3125 49.5ZM35.5 58.3359C35.5 58.7891 35.6641 59.1719 35.9922 59.4844C36.3203 59.7969 36.7188 59.9609 37.1875 59.9766C37.4062 59.9766 37.6172 59.9375 37.8203 59.8594C38.0234 59.7812 38.2109 59.6641 38.3828 59.5078L41.0078 56.8594C41.3359 56.5312 41.5 56.1406 41.5 55.6875C41.5 55.2188 41.3359 54.8203 41.0078 54.4922C40.6797 54.1641 40.2812 54 39.8125 54C39.5938 54 39.3828 54.0391 39.1797 54.1172C38.9766 54.1953 38.7891 54.3203 38.6172 54.4922L35.9922 57.1406C35.6641 57.4688 35.5 57.8672 35.5 58.3359ZM59.3125 48C59.7656 48 60.1562 47.8359 60.4844 47.5078C60.8125 47.1797 60.9844 46.7891 61 46.3359C61 45.8672 60.8359 45.4688 60.5078 45.1406L45.6953 30.3047C45.6484 30.2578 45.5703 30.2188 45.4609 30.1875C45.3516 30.1562 45.2422 30.125 45.1328 30.0938C45.0234 30.0625 44.9062 30.0391 44.7812 30.0234C44.6562 30.0078 44.5625 30 44.5 30C44.0938 30 43.7109 30.0781 43.3516 30.2344C42.9922 30.3906 42.6719 30.6016 42.3906 30.8672C42.1094 31.1328 41.8906 31.4531 41.7344 31.8281C41.5781 32.2031 41.5 32.5937 41.5 33C41.5 33.8281 41.3438 34.6016 41.0312 35.3203C40.7188 36.0391 40.2891 36.6797 39.7422 37.2422C39.1953 37.8047 38.5625 38.2344 37.8438 38.5312C37.125 38.8281 36.3438 38.9844 35.5 39C34.875 39 34.2891 38.8828 33.7422 38.6484C33.1953 38.4141 32.7188 38.0938 32.3125 37.6875C31.9062 37.2812 31.5859 36.8047 31.3516 36.2578C31.1172 35.7109 31 35.125 31 34.5C31 34.125 31.0391 33.7109 31.1172 33.2578C31.1953 32.8047 31.3203 32.3984 31.4922 32.0391L35.875 23.25C36.0156 23 36.2266 22.7969 36.5078 22.6406L35.5 21.6328L22.6094 34.5L25.7734 37.6406C26.4766 37.5625 27.1406 37.6094 27.7656 37.7812C28.3906 37.9531 28.9375 38.2422 29.4062 38.6484C29.875 39.0547 30.25 39.5469 30.5312 40.125C30.8125 40.7031 30.9609 41.3516 30.9766 42.0703C31.6016 42.1016 32.1875 42.2266 32.7344 42.4453C33.2812 42.6641 33.75 42.9766 34.1406 43.3828C34.5312 43.7891 34.8516 44.2578 35.1016 44.7891C35.3516 45.3203 35.4766 45.9141 35.4766 46.5703C36.1016 46.6016 36.6875 46.7266 37.2344 46.9453C37.7812 47.1641 38.25 47.4766 38.6406 47.8828C39.0312 48.2891 39.3516 48.7578 39.6016 49.2891C39.8516 49.8203 39.9766 50.4141 39.9766 51.0703C40.6172 51.1016 41.2109 51.2344 41.7578 51.4688C42.3047 51.7031 42.7812 52.0234 43.1875 52.4297C43.5938 52.8359 43.9141 53.3203 44.1484 53.8828C44.3828 54.4453 44.5 55.0469 44.5 55.6875C44.5 56.3906 44.3594 57.0469 44.0781 57.6562C43.7969 58.2656 43.3906 58.7969 42.8594 59.25C43.0938 59.4688 43.3047 59.6484 43.4922 59.7891C43.6797 59.9297 43.9531 60 44.3125 60C44.7656 60 45.1562 59.8359 45.4844 59.5078C45.8125 59.1797 45.9844 58.7891 46 58.3359C46 57.8672 45.8359 57.4688 45.5078 57.1406L47.6172 55.0078L49.1406 56.5078C49.5 56.8359 49.8906 57 50.3125 57C50.7656 57 51.1562 56.8359 51.4844 56.5078C51.8125 56.1797 51.9844 55.7891 52 55.3359C52 54.8672 51.8359 54.4688 51.5078 54.1406L48.8594 51.4922L50.9922 49.3828L53.6172 52.0078C53.9453 52.3359 54.3438 52.5 54.8125 52.5C55.2812 52.5 55.6797 52.3359 56.0078 52.0078C56.3359 51.6797 56.5 51.2812 56.5 50.8125C56.5 50.3438 56.3359 49.9453 56.0078 49.6172L53.3594 46.9922L55.4922 44.8594L58.1406 47.5078C58.4688 47.8359 58.8594 48 59.3125 48ZM63.3672 34.5L50.1016 21.2109L38.2891 25.1484L34.2109 33.3047C34.1328 33.4453 34.0781 33.6406 34.0469 33.8906C34.0156 34.1406 34 34.3438 34 34.5C34 34.9062 34.1484 35.2578 34.4453 35.5547C34.7422 35.8516 35.0938 36 35.5 36C35.9219 36 36.3125 35.9219 36.6719 35.7656C37.0312 35.6094 37.3438 35.3984 37.6094 35.1328C37.875 34.8672 38.0938 34.5469 38.2656 34.1719C38.4375 33.7969 38.5156 33.4062 38.5 33C38.5 32.1719 38.6562 31.3984 38.9688 30.6797C39.2812 29.9609 39.7109 29.3203 40.2578 28.7578C40.8047 28.1953 41.4375 27.7656 42.1562 27.4688C42.875 27.1719 43.6562 27.0156 44.5 27C44.75 27 45.0156 27.0234 45.2969 27.0703C45.5781 27.1172 45.875 27.1797 46.1875 27.2578C46.5 27.3359 46.7734 27.4453 47.0078 27.5859C47.2422 27.7266 47.4688 27.8906 47.6875 28.0781L58.75 39.1406L63.3672 34.5Z" fill="black"/>
</g>
<defs>
<clipPath id="clip0_17_1262">
<rect width="48" height="48" fill="white" transform="translate(19 18)"/>
</clipPath>
</defs>
</svg>
