<svg width="85" height="85" viewBox="0 0 85 85" fill="none" xmlns="http://www.w3.org/2000/svg">
<circle cx="42.5" cy="42.5" r="42.5" fill="white"/>
<path d="M32 57.3701C34.9919 59.7269 38.6913 61.0058 42.5 61.0001C46.463 61.0001 50.11 59.6441 53 57.3701M37.5 27.7471C30.551 29.8821 25.5 36.3511 25.5 44.0001C25.5 45.9251 25.82 47.7751 26.41 49.5001M47.5 27.7471C54.449 29.8821 59.5 36.3511 59.5 44.0001C59.5 45.9251 59.18 47.7751 58.59 49.5001" stroke="black" stroke-width="4"/>
<path d="M61.5 53.9999C61.5 55.3419 60.972 56.5599 60.112 57.4579C59.3089 58.2969 58.2387 58.8302 57.0853 58.9661C55.9318 59.1021 54.767 58.8322 53.7908 58.2029C52.8147 57.5736 52.088 56.6241 51.7357 55.5174C51.3833 54.4107 51.4272 53.2158 51.8598 52.138C52.2925 51.0601 53.0869 50.1665 54.1066 49.6106C55.1263 49.0546 56.3078 48.871 57.4482 49.0912C58.5885 49.3115 59.6167 49.9218 60.356 50.8176C61.0954 51.7133 61.4999 52.8384 61.5 53.9999ZM33.5 53.9999C33.5 55.3419 32.972 56.5599 32.112 57.4579C31.3089 58.2969 30.2387 58.8302 29.0853 58.9661C27.9318 59.1021 26.767 58.8322 25.7908 58.2029C24.8147 57.5736 24.088 56.6241 23.7357 55.5174C23.3833 54.4107 23.4272 53.2158 23.8598 52.138C24.2925 51.0601 25.0869 50.1665 26.1066 49.6106C27.1263 49.0546 28.3078 48.871 29.4482 49.0912C30.5885 49.3115 31.6167 49.9218 32.356 50.8176C33.0954 51.7133 33.4999 52.8384 33.5 53.9999ZM47.5 26.9999C47.5 28.3419 46.972 29.5599 46.112 30.4579C45.3089 31.2969 44.2387 31.8302 43.0853 31.9661C41.9318 32.1021 40.767 31.8322 39.7908 31.2029C38.8147 30.5736 38.088 29.6241 37.7357 28.5174C37.3833 27.4107 37.4272 26.2158 37.8598 25.138C38.2925 24.0601 39.0869 23.1665 40.1066 22.6106C41.1263 22.0546 42.3078 21.871 43.4482 22.0912C44.5885 22.3115 45.6167 22.9218 46.356 23.8176C47.0954 24.7133 47.4999 25.8384 47.5 26.9999Z" stroke="black" stroke-width="4" stroke-linecap="round" stroke-linejoin="round"/>
</svg>
