<svg width="85" height="85" viewBox="0 0 85 85" fill="none" xmlns="http://www.w3.org/2000/svg">
<circle cx="42.5" cy="42.5" r="42.5" fill="white"/>
<path d="M53 52.5V57H31.25C29.4598 57 27.7429 56.2888 26.477 55.023C25.2112 53.7571 24.5 52.0402 24.5 50.25C24.5 48.4598 25.2112 46.7429 26.477 45.477C27.7429 44.2112 29.4598 43.5 31.25 43.5H32V40.5H31.25C28.6641 40.5 26.1842 41.5272 24.3557 43.3557C22.5272 45.1842 21.5 47.6641 21.5 50.25C21.5 52.8359 22.5272 55.3158 24.3557 57.1443C26.1842 58.9728 28.6641 60 31.25 60H53V64.5H65V52.5H53ZM62 61.5H56V55.5H62V61.5Z" fill="black"/>
<path d="M50 51H47V46.5H38V51H35V46.5C35.0008 45.7046 35.3171 44.942 35.8796 44.3796C36.442 43.8171 37.2046 43.5008 38 43.5H47C47.7954 43.5008 48.558 43.8171 49.1204 44.3796C49.6829 44.942 49.9992 45.7046 50 46.5V51ZM42.5 42C41.61 42 40.74 41.7361 39.9999 41.2416C39.2599 40.7471 38.6831 40.0443 38.3425 39.2221C38.0019 38.3998 37.9128 37.495 38.0865 36.6221C38.2601 35.7492 38.6887 34.9474 39.318 34.318C39.9474 33.6887 40.7492 33.2601 41.6221 33.0865C42.495 32.9128 43.3998 33.0019 44.2221 33.3425C45.0443 33.6831 45.7471 34.2599 46.2416 34.9999C46.7361 35.74 47 36.61 47 37.5C46.9988 38.6931 46.5243 39.837 45.6807 40.6807C44.837 41.5243 43.6931 41.9988 42.5 42ZM42.5 36C42.2033 36 41.9133 36.088 41.6666 36.2528C41.42 36.4176 41.2277 36.6519 41.1142 36.926C41.0006 37.2001 40.9709 37.5017 41.0288 37.7926C41.0867 38.0836 41.2296 38.3509 41.4393 38.5607C41.6491 38.7704 41.9164 38.9133 42.2074 38.9712C42.4983 39.0291 42.7999 38.9994 43.074 38.8858C43.3481 38.7723 43.5824 38.58 43.7472 38.3334C43.912 38.0867 44 37.7967 44 37.5C43.9996 37.1023 43.8414 36.721 43.5602 36.4398C43.279 36.1586 42.8977 36.0004 42.5 36Z" fill="black"/>
<path d="M53.75 24H32V19.5H20V31.5H32V27H53.75C55.5402 27 57.2571 27.7112 58.523 28.977C59.7888 30.2429 60.5 31.9598 60.5 33.75C60.5 35.5402 59.7888 37.2571 58.523 38.523C57.2571 39.7888 55.5402 40.5 53.75 40.5H53V43.5H53.75C56.3359 43.5 58.8158 42.4728 60.6443 40.6443C62.4728 38.8158 63.5 36.3359 63.5 33.75C63.5 31.1641 62.4728 28.6842 60.6443 26.8557C58.8158 25.0272 56.3359 24 53.75 24ZM29 28.5H23V22.5H29V28.5Z" fill="black"/>
</svg>
