<svg
    width={616}
    height={404}
    viewBox="0 0 616 404"
    fill="none"
    xmlns="http://www.w3.org/2000/svg"
    {...props}
  >
    <g filter="url(#filter0_d_18_2200)">
      <g clipPath="url(#clip0_18_2200)">
        <rect
          x={60.3535}
          y={1.52344}
          width={465.432}
          height={317.751}
          rx={9.52778}
          fill="white"
        />
        <g clipPath="url(#clip1_18_2200)">
          <path
            d="M70.358 13.2873C69.2617 13.2873 68.373 12.3986 68.373 11.3023C68.373 10.206 69.2617 9.31738 70.358 9.31738C71.4543 9.31738 72.343 10.206 72.343 11.3023C72.343 12.3986 71.4543 13.2873 70.358 13.2873Z"
            fill="#E11D48"
          />
        </g>
        <g clipPath="url(#clip2_18_2200)">
          <path
            d="M77.5064 13.2873C76.4101 13.2873 75.5215 12.3986 75.5215 11.3023C75.5215 10.206 76.4101 9.31738 77.5064 9.31738C78.6027 9.31738 79.4914 10.206 79.4914 11.3023C79.4914 12.3986 78.6027 13.2873 77.5064 13.2873Z"
            fill="#FBBF24"
          />
        </g>
        <g clipPath="url(#clip3_18_2200)">
          <path
            d="M84.649 13.2873C83.5527 13.2873 82.6641 12.3986 82.6641 11.3023C82.6641 10.206 83.5527 9.31738 84.649 9.31738C85.7453 9.31738 86.634 10.206 86.634 11.3023C86.634 12.3986 85.7453 13.2873 84.649 13.2873Z"
            fill="#22C55E"
          />
        </g>
        <path
          d="M498.039 11.2895L500.397 13.6476C500.442 13.6916 500.478 13.7441 500.503 13.8022C500.528 13.8604 500.542 13.9229 500.542 13.9861C500.543 14.0494 500.531 14.1121 500.507 14.1707C500.483 14.2292 500.447 14.2824 500.403 14.3271C500.358 14.3719 500.305 14.4072 500.246 14.4312C500.188 14.4551 500.125 14.4672 500.062 14.4666C499.998 14.4661 499.936 14.453 499.878 14.428C499.82 14.403 499.767 14.3667 499.723 14.3212L497.028 11.6263C496.939 11.537 496.889 11.4158 496.889 11.2895C496.889 11.1632 496.939 11.042 497.028 10.9527L499.723 8.25775C499.813 8.17097 499.933 8.12296 500.058 8.12404C500.183 8.12513 500.303 8.17523 500.391 8.26355C500.479 8.35188 500.529 8.47137 500.53 8.59627C500.531 8.72118 500.483 8.84152 500.397 8.93137L498.039 11.2895Z"
          fill="#94A3B8"
        />
        <path
          d="M513.07 11.3232L510.712 8.96506C510.625 8.87521 510.577 8.75487 510.578 8.62996C510.579 8.50506 510.629 8.38557 510.718 8.29725C510.806 8.20892 510.925 8.15882 511.05 8.15773C511.175 8.15665 511.296 8.20466 511.385 8.29144L514.08 10.9864C514.17 11.0757 514.22 11.1969 514.22 11.3232C514.22 11.4495 514.17 11.5707 514.08 11.66L511.385 14.3549C511.296 14.4417 511.175 14.4897 511.05 14.4886C510.925 14.4875 510.806 14.4374 510.718 14.3491C510.629 14.2608 510.579 14.1413 510.578 14.0164C510.577 13.8915 510.625 13.7712 510.712 13.6813L513.07 11.3232V11.3232Z"
          fill="#475569"
        />
        <rect
          x={60.3535}
          y={21.0552}
          width={465.432}
          height={298.219}
          fill="#DBEAFE"
        />
        <path
          d="M60.3535 21.4531H138.315V319.275H60.3535V21.4531Z"
          fill="#BFDBFE"
        />
        <path
          d="M69.709 49.6846C69.709 47.0494 71.8033 44.9131 74.3867 44.9131H124.282C126.866 44.9131 128.96 47.0494 128.96 49.6846V49.6846C128.96 52.3198 126.866 54.4561 124.282 54.4561H74.3867C71.8033 54.4561 69.709 52.3198 69.709 49.6846V49.6846Z"
          fill="#93C5FD"
        />
        <path
          d="M88.4199 83.085C88.4199 81.7674 89.4671 80.6992 90.7588 80.6992H129.74C131.031 80.6992 132.079 81.7674 132.079 83.085V83.085C132.079 84.4026 131.031 85.4707 129.74 85.4707H90.7588C89.4671 85.4707 88.4199 84.4026 88.4199 83.085V83.085Z"
          fill="white"
        />
        <path
          d="M88.4199 108.533C88.4199 107.216 89.4671 106.147 90.7588 106.147H117.656C118.947 106.147 119.994 107.216 119.994 108.533V108.533C119.994 109.851 118.947 110.919 117.656 110.919H90.7588C89.4671 110.919 88.4199 109.851 88.4199 108.533V108.533Z"
          fill="white"
        />
        <path
          d="M88.4199 133.981C88.4199 132.664 89.4671 131.596 90.7588 131.596H124.282C125.574 131.596 126.621 132.664 126.621 133.981V133.981C126.621 135.299 125.574 136.367 124.282 136.367H90.7588C89.4671 136.367 88.4199 135.299 88.4199 133.981V133.981Z"
          fill="white"
        />
        <path
          fillRule="evenodd"
          clipRule="evenodd"
          d="M75.9459 88.2543C78.7446 88.2543 81.0134 85.94 81.0134 83.0852C81.0134 80.2303 78.7446 77.916 75.9459 77.916C73.1472 77.916 70.8784 80.2303 70.8784 83.0852C70.8784 85.94 73.1472 88.2543 75.9459 88.2543ZM75.9459 89.4472C79.3905 89.4472 82.1829 86.5988 82.1829 83.0852C82.1829 79.5715 79.3905 76.7231 75.9459 76.7231C72.5014 76.7231 69.709 79.5715 69.709 83.0852C69.709 86.5988 72.5014 89.4472 75.9459 89.4472Z"
          fill="#93C5FD"
        />
        <path
          d="M163.262 49.6844C163.262 47.9276 164.658 46.5034 166.38 46.5034H211.598C213.32 46.5034 214.717 47.9276 214.717 49.6844V49.6844C214.717 51.4412 213.32 52.8654 211.598 52.8654H166.38C164.658 52.8654 163.262 51.4412 163.262 49.6844V49.6844Z"
          fill="#BFDBFE"
        />
        <path
          fillRule="evenodd"
          clipRule="evenodd"
          d="M246.094 177.943C246.117 175.675 247.883 173.744 250.153 173.744C251.547 173.744 252.572 174.447 253.226 175.11C253.408 175.294 253.565 175.478 253.695 175.648C253.826 175.478 253.983 175.294 254.165 175.11C254.819 174.447 255.844 173.744 257.237 173.744C259.508 173.744 261.274 175.675 261.297 177.943L261.297 177.943C261.34 182.366 257.856 185.427 254.353 187.852C254.159 187.986 253.93 188.058 253.695 188.058C253.461 188.058 253.232 187.986 253.038 187.852C249.535 185.427 246.051 182.366 246.094 177.943L246.094 177.943ZM254.218 176.994C254.118 177.195 253.916 177.322 253.695 177.322C253.474 177.322 253.272 177.195 253.173 176.994C253.173 176.994 253.173 176.993 253.172 176.993C253.172 176.991 253.171 176.989 253.169 176.986C253.168 176.984 253.167 176.982 253.166 176.98C253.159 176.967 253.148 176.947 253.133 176.92C253.102 176.865 253.055 176.784 252.99 176.685C252.859 176.486 252.663 176.22 252.402 175.956C251.878 175.426 251.132 174.937 250.153 174.937C248.568 174.937 247.28 176.296 247.264 177.955M254.218 176.994C254.218 176.994 254.218 176.993 254.218 176.993C254.219 176.99 254.222 176.986 254.225 176.98C254.232 176.967 254.242 176.947 254.258 176.92C254.288 176.865 254.336 176.784 254.401 176.685C254.532 176.486 254.728 176.22 254.989 175.956C255.512 175.426 256.258 174.937 257.237 174.937C258.823 174.937 260.111 176.296 260.127 177.955C260.164 181.682 257.229 184.419 253.696 186.865L253.695 186.865L253.695 186.865C250.161 184.419 247.227 181.682 247.264 177.955"
          fill="white"
        />
        <path
          d="M163.262 180.901C163.262 179.144 164.658 177.72 166.38 177.72H187.43C189.152 177.72 190.548 179.144 190.548 180.901V180.901C190.548 182.658 189.152 184.082 187.43 184.082H166.38C164.658 184.082 163.262 182.658 163.262 180.901V180.901Z"
          fill="#BFDBFE"
        />
        <path
          d="M196.785 180.901C196.785 179.144 198.181 177.72 199.904 177.72H234.986C236.709 177.72 238.105 179.144 238.105 180.901V180.901C238.105 182.658 236.709 184.082 234.986 184.082H199.904C198.181 184.082 196.785 182.658 196.785 180.901V180.901Z"
          fill="#BFDBFE"
        />
        <path
          d="M163.262 211.916C163.262 210.598 164.309 209.53 165.601 209.53H198.345C199.636 209.53 200.683 210.598 200.683 211.916V211.916C200.683 213.233 199.636 214.301 198.345 214.301H165.601C164.309 214.301 163.262 213.233 163.262 211.916V211.916Z"
          fill="white"
        />
        <path
          d="M163.262 223.049C163.262 221.731 164.309 220.663 165.601 220.663H215.886C217.178 220.663 218.225 221.731 218.225 223.049V223.049C218.225 224.366 217.178 225.435 215.886 225.435H165.601C164.309 225.435 163.262 224.366 163.262 223.049V223.049Z"
          fill="white"
        />
        <path
          d="M206.92 211.916C206.92 210.598 207.967 209.53 209.259 209.53H248.24C249.531 209.53 250.579 210.598 250.579 211.916V211.916C250.579 213.233 249.531 214.301 248.24 214.301H209.259C207.967 214.301 206.92 213.233 206.92 211.916V211.916Z"
          fill="white"
        />
        <path
          d="M163.262 80.6992C163.262 79.3816 164.309 78.3135 165.601 78.3135H198.345C199.636 78.3135 200.683 79.3816 200.683 80.6992V80.6992C200.683 82.0168 199.636 83.085 198.345 83.085H165.601C164.309 83.085 163.262 82.0168 163.262 80.6992V80.6992Z"
          fill="white"
        />
        <path
          d="M163.262 91.8325C163.262 90.5149 164.309 89.4468 165.601 89.4468H246.291C247.583 89.4468 248.63 90.5149 248.63 91.8325V91.8325C248.63 93.1501 247.583 94.2183 246.291 94.2183H165.601C164.309 94.2183 163.262 93.1501 163.262 91.8325V91.8325Z"
          fill="white"
        />
        <path
          d="M206.92 80.6992C206.92 79.3816 207.967 78.3135 209.259 78.3135H298.135C299.427 78.3135 300.474 79.3816 300.474 80.6992V80.6992C300.474 82.0168 299.427 83.085 298.135 83.085H209.259C207.967 83.085 206.92 82.0168 206.92 80.6992V80.6992Z"
          fill="white"
        />
        <path
          fillRule="evenodd"
          clipRule="evenodd"
          d="M81.4021 103.364H71.2671V113.702H81.4021V103.364ZM70.0977 102.171V114.895H82.5715V102.171H70.0977Z"
          fill="#60A5FA"
        />
        <g clipPath="url(#clip4_18_2200)">
          <rect
            x={330.49}
            y={49.6846}
            width={77.9618}
            height={108.95}
            rx={9.52778}
            fill="white"
          />
          <path
            d="M382.422 158.728C382.422 186.297 360.693 208.647 333.89 208.647C307.086 208.647 285.357 186.297 285.357 158.728C285.357 131.159 307.086 108.81 333.89 108.81C360.693 108.81 382.422 131.159 382.422 158.728Z"
            fill="#FACC15"
          />
          <path
            fillRule="evenodd"
            clipRule="evenodd"
            d="M419.275 92.1154L393.916 66.2483L368.557 92.1154L393.916 117.983L419.275 92.1154ZM393.916 63.999L366.352 92.1154L393.916 120.232L421.48 92.1154L393.916 63.999Z"
            fill="#BFDBFE"
          />
        </g>
        <path
          d="M76.3346 128.414L82.5715 139.433H70.0977L76.3346 128.414Z"
          fill="#93C5FD"
        />
        <rect
          x={420.928}
          y={49.6846}
          width={77.9618}
          height={80.3204}
          rx={9.52778}
          fill="white"
        />
        <path
          fillRule="evenodd"
          clipRule="evenodd"
          d="M455.997 109.574C463.769 109.574 470.017 103.206 470.017 95.4172C470.017 87.6284 463.769 81.2604 455.997 81.2604C448.224 81.2604 441.976 87.6284 441.976 95.4172C441.976 103.206 448.224 109.574 455.997 109.574ZM455.997 113.55C465.893 113.55 473.915 105.432 473.915 95.4172C473.915 85.4026 465.893 77.2842 455.997 77.2842C446.101 77.2842 438.078 85.4026 438.078 95.4172C438.078 105.432 446.101 113.55 455.997 113.55Z"
          fill="#BFDBFE"
        />
        <path
          d="M464.142 89.6772L469.297 70.0526L483.381 84.4188L464.142 89.6772Z"
          fill="#FACC15"
        />
        <g clipPath="url(#clip5_18_2200)">
          <rect
            x={330.49}
            y={171.358}
            width={77.9618}
            height={121.674}
            rx={9.52778}
            fill="white"
          />
          <path
            fillRule="evenodd"
            clipRule="evenodd"
            d="M403.579 308.539C425.43 308.539 443.145 290.47 443.145 268.18C443.145 245.89 425.43 227.821 403.579 227.821C381.727 227.821 364.013 245.89 364.013 268.18C364.013 290.47 381.727 308.539 403.579 308.539ZM403.579 312.515C427.583 312.515 447.043 292.666 447.043 268.18C447.043 243.694 427.583 223.845 403.579 223.845C379.575 223.845 360.115 243.694 360.115 268.18C360.115 292.666 379.575 312.515 403.579 312.515Z"
            fill="#FACC15"
          />
          <path
            d="M371.418 207.632C371.418 215.148 365.397 221.241 357.97 221.241C350.543 221.241 344.521 215.148 344.521 207.632C344.521 200.116 350.543 194.022 357.97 194.022C365.397 194.022 371.418 200.116 371.418 207.632Z"
            fill="#BFDBFE"
          />
          <path
            fillRule="evenodd"
            clipRule="evenodd"
            d="M357.97 220.048C364.76 220.048 370.249 214.48 370.249 207.632C370.249 200.783 364.76 195.215 357.97 195.215C351.18 195.215 345.691 200.783 345.691 207.632C345.691 214.48 351.18 220.048 357.97 220.048ZM357.97 221.241C365.397 221.241 371.418 215.148 371.418 207.632C371.418 200.116 365.397 194.022 357.97 194.022C350.543 194.022 344.521 200.116 344.521 207.632C344.521 215.148 350.543 221.241 357.97 221.241Z"
            fill="#BFDBFE"
          />
        </g>
        <g clipPath="url(#clip6_18_2200)">
          <rect
            x={420.928}
            y={142.729}
            width={77.9618}
            height={135.988}
            rx={9.52778}
            fill="white"
          />
          <path
            d="M516.821 240.744C516.821 250.516 509.142 258.439 499.669 258.439C490.197 258.439 482.518 250.516 482.518 240.744C482.518 230.972 490.197 223.05 499.669 223.05C509.142 223.05 516.821 230.972 516.821 240.744Z"
            fill="white"
          />
          <path
            fillRule="evenodd"
            clipRule="evenodd"
            d="M499.669 257.246C508.483 257.246 515.651 249.87 515.651 240.744C515.651 231.618 508.483 224.243 499.669 224.243C490.855 224.243 483.687 231.618 483.687 240.744C483.687 249.87 490.855 257.246 499.669 257.246ZM499.669 258.439C509.142 258.439 516.821 250.516 516.821 240.744C516.821 230.972 509.142 223.05 499.669 223.05C490.197 223.05 482.518 230.972 482.518 240.744C482.518 250.516 490.197 258.439 499.669 258.439Z"
            fill="#BFDBFE"
          />
          <path
            d="M485.636 190.643C485.636 203.709 475.339 214.302 462.637 214.302C449.936 214.302 439.639 203.709 439.639 190.643C439.639 177.577 449.936 166.984 462.637 166.984C475.339 166.984 485.636 177.577 485.636 190.643Z"
            fill="#BFDBFE"
          />
          <path
            d="M435.349 236.171L436.449 239.399L439.798 239.468L437.129 241.533L438.099 244.803L435.349 242.851L432.6 244.803L433.57 241.533L430.9 239.468L434.249 239.399L435.349 236.171Z"
            fill="#FACC15"
          />
          <path
            d="M451.332 236.171L452.431 239.399L455.78 239.468L453.111 241.533L454.081 244.803L451.332 242.851L448.582 244.803L449.552 241.533L446.883 239.468L450.232 239.399L451.332 236.171Z"
            fill="#FACC15"
          />
          <path
            d="M467.314 236.171L468.414 239.399L471.763 239.468L469.094 241.533L470.063 244.803L467.314 242.851L464.565 244.803L465.534 241.533L462.865 239.468L466.214 239.399L467.314 236.171Z"
            fill="#FACC15"
          />
          <path
            d="M483.296 236.171L484.396 239.399L487.745 239.468L485.076 241.533L486.046 244.803L483.296 242.851L480.547 244.803L481.517 241.533L478.848 239.468L482.197 239.399L483.296 236.171Z"
            fill="#FACC15"
          />
          <path
            d="M499.279 236.171L500.379 239.399L503.728 239.468L501.058 241.533L502.028 244.803L499.279 242.851L496.529 244.803L497.499 241.533L494.83 239.468L498.179 239.399L499.279 236.171Z"
            fill="#FACC15"
          />
        </g>
      </g>
      <rect
        x={59.8771}
        y={1.04705}
        width={466.385}
        height={318.704}
        rx={10.0042}
        stroke="#0F172A"
        strokeWidth={0.952778}
      />
    </g>
    <g filter="url(#filter1_d_18_2200)">
      <g clipPath="url(#clip7_18_2200)">
        <path
          d="M443.041 40.1113H609.777V397.403H443.041V40.1113Z"
          fill="#DBEAFE"
        />
        <path
          d="M458.285 288.31C458.285 283.048 462.551 278.782 467.813 278.782H585.005C590.267 278.782 594.532 283.048 594.532 288.31V362.627C594.532 367.889 590.267 372.154 585.005 372.154H467.813C462.551 372.154 458.285 367.889 458.285 362.627V288.31Z"
          fill="white"
        />
        <mask
          id="mask0_18_2200"
          style={{
            maskType: "alpha"
          }}
          maskUnits="userSpaceOnUse"
          x={458}
          y={278}
          width={137}
          height={95}
        >
          <path
            d="M458.285 288.31C458.285 283.048 462.551 278.782 467.813 278.782H585.005C590.267 278.782 594.532 283.048 594.532 288.31V362.627C594.532 367.889 590.267 372.154 585.005 372.154H467.813C462.551 372.154 458.285 367.889 458.285 362.627V288.31Z"
            fill="white"
          />
        </mask>
        <g mask="url(#mask0_18_2200)">
          <path
            d="M560.708 309.986C560.708 315.116 556.549 319.275 551.418 319.275C546.288 319.275 542.129 315.116 542.129 309.986C542.129 304.855 546.288 300.696 551.418 300.696C556.549 300.696 560.708 304.855 560.708 309.986Z"
            fill="#FACC15"
          />
          <path
            d="M529.267 296.647C529.267 318.09 511.884 335.473 490.441 335.473C468.998 335.473 451.615 318.09 451.615 296.647C451.615 275.204 468.998 257.821 490.441 257.821C511.884 257.821 529.267 275.204 529.267 296.647Z"
            fill="white"
          />
          <path
            fillRule="evenodd"
            clipRule="evenodd"
            d="M490.441 330.709C509.253 330.709 524.503 315.459 524.503 296.647C524.503 277.835 509.253 262.585 490.441 262.585C471.629 262.585 456.379 277.835 456.379 296.647C456.379 315.459 471.629 330.709 490.441 330.709ZM490.441 335.473C511.884 335.473 529.267 318.09 529.267 296.647C529.267 275.204 511.884 257.821 490.441 257.821C468.998 257.821 451.615 275.204 451.615 296.647C451.615 318.09 468.998 335.473 490.441 335.473Z"
            fill="#DBEAFE"
          />
        </g>
        <path
          d="M594.533 384.064L510.689 384.064L594.533 304.031L594.533 384.064Z"
          fill="#BFDBFE"
        />
        <path
          d="M458.285 260.68C458.285 259.101 459.565 257.821 461.143 257.821H529.743C531.322 257.821 532.602 259.101 532.602 260.68C532.602 262.258 531.322 263.538 529.743 263.538H461.143C459.565 263.538 458.285 262.258 458.285 260.68Z"
          fill="white"
        />
        <mask id="path-56-inside-1_18_2200" fill="white">
          <path d="M443.041 351.67H609.777V397.403H443.041V351.67Z" />
        </mask>
        <path
          d="M443.041 351.67H609.777V397.403H443.041V351.67Z"
          fill="#DBEAFE"
        />
        <path
          d="M443.041 353.099H609.777V350.241H443.041V353.099Z"
          fill="white"
          mask="url(#path-56-inside-1_18_2200)"
        />
        <path
          fillRule="evenodd"
          clipRule="evenodd"
          d="M466.175 365.248C466.513 365.262 466.795 365.511 466.851 365.845L469.188 379.868L471.176 372.912C471.262 372.61 471.534 372.4 471.847 372.394C472.16 372.387 472.442 372.585 472.541 372.882L473.807 376.681H476.15C476.545 376.681 476.865 377.001 476.865 377.395C476.865 377.79 476.545 378.11 476.15 378.11H473.292C472.984 378.11 472.711 377.913 472.614 377.621L471.915 375.525L469.692 383.308C469.6 383.63 469.298 383.844 468.964 383.826C468.63 383.807 468.354 383.559 468.3 383.23L466.006 369.469L463.981 377.569C463.901 377.887 463.616 378.11 463.288 378.11H460.429C460.035 378.11 459.715 377.79 459.715 377.395C459.715 377.001 460.035 376.681 460.429 376.681H462.73L465.453 365.789C465.535 365.46 465.836 365.235 466.175 365.248Z"
          fill="white"
        />
        <path
          fillRule="evenodd"
          clipRule="evenodd"
          d="M477.579 376.681C477.185 376.681 476.865 377.001 476.865 377.395C476.865 377.79 477.185 378.11 477.579 378.11C477.974 378.11 478.294 377.79 478.294 377.395C478.294 377.001 477.974 376.681 477.579 376.681ZM475.436 377.395C475.436 376.211 476.395 375.251 477.579 375.251C478.763 375.251 479.723 376.211 479.723 377.395C479.723 378.579 478.763 379.539 477.579 379.539C476.395 379.539 475.436 378.579 475.436 377.395Z"
          fill="white"
        />
        <path
          fillRule="evenodd"
          clipRule="evenodd"
          d="M520.555 366.55C521.826 365.701 523.321 365.248 524.85 365.248V365.962L524.85 365.248C526.9 365.248 528.866 366.062 530.316 367.512C531.765 368.962 532.58 370.928 532.58 372.978V372.978C532.58 374.507 532.127 376.002 531.277 377.273C530.428 378.544 529.22 379.535 527.808 380.12C526.395 380.705 524.841 380.858 523.341 380.56C521.842 380.262 520.464 379.525 519.383 378.444C518.302 377.363 517.566 375.986 517.268 374.486C516.969 372.987 517.122 371.432 517.708 370.02C518.293 368.607 519.284 367.4 520.555 366.55ZM524.85 366.677C526.521 366.677 528.123 367.341 529.305 368.522C530.487 369.704 531.151 371.307 531.151 372.978M524.85 366.677C523.603 366.677 522.385 367.046 521.349 367.739C520.313 368.431 519.505 369.415 519.028 370.567C518.551 371.718 518.426 372.985 518.669 374.207C518.913 375.43 519.513 376.552 520.394 377.434C521.275 378.315 522.398 378.915 523.62 379.158C524.843 379.401 526.11 379.277 527.261 378.8C528.412 378.323 529.397 377.515 530.089 376.479C530.781 375.443 531.151 374.224 531.151 372.978"
          fill="white"
        />
        <path
          fillRule="evenodd"
          clipRule="evenodd"
          d="M529.578 377.707C529.857 377.428 530.31 377.428 530.589 377.707L535.489 382.607C535.768 382.886 535.768 383.338 535.489 383.617C535.21 383.896 534.757 383.896 534.478 383.617L529.578 378.717C529.299 378.438 529.299 377.986 529.578 377.707Z"
          fill="white"
        />
        <path
          fillRule="evenodd"
          clipRule="evenodd"
          d="M574.523 370.249C574.523 369.855 574.843 369.535 575.238 369.535H590.959C591.354 369.535 591.673 369.855 591.673 370.249C591.673 370.644 591.354 370.964 590.959 370.964H575.238C574.843 370.964 574.523 370.644 574.523 370.249Z"
          fill="white"
        />
        <path
          fillRule="evenodd"
          clipRule="evenodd"
          d="M574.523 374.537C574.523 374.142 574.843 373.822 575.238 373.822H590.959C591.354 373.822 591.673 374.142 591.673 374.537C591.673 374.932 591.354 375.251 590.959 375.251H575.238C574.843 375.251 574.523 374.932 574.523 374.537Z"
          fill="white"
        />
        <path
          fillRule="evenodd"
          clipRule="evenodd"
          d="M574.523 378.824C574.523 378.43 574.843 378.11 575.238 378.11H590.959C591.354 378.11 591.673 378.43 591.673 378.824C591.673 379.219 591.354 379.539 590.959 379.539H575.238C574.843 379.539 574.523 379.219 574.523 378.824Z"
          fill="white"
        />
        <path
          fillRule="evenodd"
          clipRule="evenodd"
          d="M469.941 81.0376C470.359 81.4562 470.359 82.1348 469.941 82.5534L464.267 88.2268L469.941 93.9001C470.359 94.3187 470.359 94.9973 469.941 95.4159C469.522 95.8345 468.843 95.8345 468.425 95.4159L461.994 88.9847C461.575 88.5661 461.575 87.8874 461.994 87.4688L468.425 81.0376C468.843 80.619 469.522 80.619 469.941 81.0376Z"
          fill="white"
        />
        <path
          fillRule="evenodd"
          clipRule="evenodd"
          d="M462.572 88.2267C462.572 87.6347 463.052 87.1548 463.644 87.1548H476.685C477.277 87.1548 477.757 87.6347 477.757 88.2267C477.757 88.8186 477.277 89.2985 476.685 89.2985H463.644C463.052 89.2985 462.572 88.8186 462.572 88.2267Z"
          fill="white"
        />
        <path
          d="M494.967 88.2266C494.967 86.1218 496.673 84.4155 498.778 84.4155H554.039C556.144 84.4155 557.85 86.1218 557.85 88.2266C557.85 90.3315 556.144 92.0377 554.039 92.0377H498.778C496.673 92.0377 494.967 90.3315 494.967 88.2266Z"
          fill="#BFDBFE"
        />
        <path
          d="M458.285 125.385C458.285 123.806 459.565 122.526 461.143 122.526H501.16C502.739 122.526 504.018 123.806 504.018 125.385C504.018 126.963 502.739 128.243 501.16 128.243H461.143C459.565 128.243 458.285 126.963 458.285 125.385Z"
          fill="white"
        />
        <path
          d="M458.285 138.724C458.285 137.145 459.565 135.865 461.143 135.865H522.598C524.176 135.865 525.456 137.145 525.456 138.724C525.456 140.302 524.176 141.582 522.598 141.582H461.143C459.565 141.582 458.285 140.302 458.285 138.724Z"
          fill="white"
        />
        <path
          d="M511.641 125.385C511.641 123.806 512.92 122.526 514.499 122.526H562.138C563.716 122.526 564.996 123.806 564.996 125.385C564.996 126.963 563.716 128.243 562.138 128.243H514.499C512.92 128.243 511.641 126.963 511.641 125.385Z"
          fill="white"
        />
        <g clipPath="url(#clip8_18_2200)">
          <rect
            x={458.285}
            y={156.827}
            width={57.1667}
            height={78.1278}
            rx={9.52778}
            fill="white"
          />
          <path
            d="M496.367 235.022C496.367 254.792 480.435 270.818 460.78 270.818C441.126 270.818 425.193 254.792 425.193 235.022C425.193 215.252 441.126 199.225 460.78 199.225C480.435 199.225 496.367 215.252 496.367 235.022Z"
            fill="#FACC15"
          />
          <path
            d="M505.887 180.311C505.887 187.489 500.103 193.307 492.967 193.307C485.831 193.307 480.047 187.489 480.047 180.311C480.047 173.134 485.831 167.315 492.967 167.315C500.103 167.315 505.887 173.134 505.887 180.311Z"
            fill="white"
          />
          <path
            fillRule="evenodd"
            clipRule="evenodd"
            d="M492.967 191.878C499.305 191.878 504.458 186.707 504.458 180.311C504.458 173.915 499.305 168.744 492.967 168.744C486.629 168.744 481.476 173.915 481.476 180.311C481.476 186.707 486.629 191.878 492.967 191.878ZM492.967 193.307C500.103 193.307 505.887 187.489 505.887 180.311C505.887 173.134 500.103 167.315 492.967 167.315C485.831 167.315 480.047 173.134 480.047 180.311C480.047 187.489 485.831 193.307 492.967 193.307Z"
            fill="#BFDBFE"
          />
        </g>
        <rect
          x={523.074}
          y={156.827}
          width={57.1667}
          height={78.1278}
          rx={9.52778}
          fill="white"
        />
        <path
          d="M572.403 177.803C572.403 181.329 569.513 184.187 565.948 184.187C562.384 184.187 559.494 181.329 559.494 177.803C559.494 174.277 562.384 171.419 565.948 171.419C569.513 171.419 572.403 174.277 572.403 177.803Z"
          fill="#FACC15"
        />
        <path
          d="M562.261 212.688C562.261 219.865 556.378 225.684 549.122 225.684C541.865 225.684 535.982 219.865 535.982 212.688C535.982 205.51 541.865 199.691 549.122 199.691C556.378 199.691 562.261 205.51 562.261 212.688Z"
          fill="#BFDBFE"
        />
        <path
          fillRule="evenodd"
          clipRule="evenodd"
          d="M549.122 224.255C555.604 224.255 560.831 219.061 560.831 212.688C560.831 206.314 555.604 201.121 549.122 201.121C542.64 201.121 537.412 206.314 537.412 212.688C537.412 219.061 542.64 224.255 549.122 224.255ZM549.122 225.684C556.378 225.684 562.261 219.865 562.261 212.688C562.261 205.51 556.378 199.691 549.122 199.691C541.865 199.691 535.982 205.51 535.982 212.688C535.982 219.865 541.865 225.684 549.122 225.684Z"
          fill="#BFDBFE"
        />
        <rect
          x={587.863}
          y={156.827}
          width={57.1667}
          height={78.1278}
          rx={9.52778}
          fill="white"
        />
        <path
          d="M609.777 176.835L614.257 189.724L627.9 190.002L617.026 198.246L620.978 211.307L609.777 203.513L598.577 211.307L602.528 198.246L591.654 190.002L605.297 189.724L609.777 176.835Z"
          fill="white"
        />
        <path
          fillRule="evenodd"
          clipRule="evenodd"
          d="M614.257 189.724L609.777 176.835L605.297 189.724L591.654 190.002L602.528 198.246L598.577 211.307L609.777 203.513L620.978 211.307L617.026 198.246L627.9 190.002L614.257 189.724ZM623.76 191.347L613.234 191.133L609.777 181.188L606.32 191.133L595.794 191.347L604.184 197.708L601.135 207.785L609.777 201.772L618.419 207.785L615.37 197.708L623.76 191.347Z"
          fill="#FACC15"
        />
      </g>
      <rect
        x={443.517}
        y={40.5877}
        width={165.783}
        height={356.339}
        rx={9.05139}
        stroke="#0F172A"
        strokeWidth={0.952778}
        shapeRendering="crispEdges"
      />
    </g>
    <defs>
      <filter
        id="filter0_d_18_2200"
        x={59.4004}
        y={0.570801}
        width={473.055}
        height={325.373}
        filterUnits="userSpaceOnUse"
        colorInterpolationFilters="sRGB"
      >
        <feFlood floodOpacity={0} result="BackgroundImageFix" />
        <feColorMatrix
          in="SourceAlpha"
          type="matrix"
          values="0 0 0 0 0 0 0 0 0 0 0 0 0 0 0 0 0 0 127 0"
          result="hardAlpha"
        />
        <feOffset dx={5.71667} dy={5.71667} />
        <feColorMatrix
          type="matrix"
          values="0 0 0 0 0.0588235 0 0 0 0 0.0901961 0 0 0 0 0.164706 0 0 0 1 0"
        />
        <feBlend
          mode="normal"
          in2="BackgroundImageFix"
          result="effect1_dropShadow_18_2200"
        />
        <feBlend
          mode="normal"
          in="SourceGraphic"
          in2="effect1_dropShadow_18_2200"
          result="shape"
        />
      </filter>
      <filter
        id="filter1_d_18_2200"
        x={443.041}
        y={40.1113}
        width={172.453}
        height={363.008}
        filterUnits="userSpaceOnUse"
        colorInterpolationFilters="sRGB"
      >
        <feFlood floodOpacity={0} result="BackgroundImageFix" />
        <feColorMatrix
          in="SourceAlpha"
          type="matrix"
          values="0 0 0 0 0 0 0 0 0 0 0 0 0 0 0 0 0 0 127 0"
          result="hardAlpha"
        />
        <feOffset dx={5.71667} dy={5.71667} />
        <feComposite in2="hardAlpha" operator="out" />
        <feColorMatrix
          type="matrix"
          values="0 0 0 0 0.0588235 0 0 0 0 0.0901961 0 0 0 0 0.164706 0 0 0 1 0"
        />
        <feBlend
          mode="normal"
          in2="BackgroundImageFix"
          result="effect1_dropShadow_18_2200"
        />
        <feBlend
          mode="normal"
          in="SourceGraphic"
          in2="effect1_dropShadow_18_2200"
          result="shape"
        />
      </filter>
      <clipPath id="clip0_18_2200">
        <rect
          x={60.3535}
          y={1.52344}
          width={465.432}
          height={317.751}
          rx={9.52778}
          fill="white"
        />
      </clipPath>
      <clipPath id="clip1_18_2200">
        <rect
          width={4.76389}
          height={4.76389}
          fill="white"
          transform="translate(67.9766 8.90723)"
        />
      </clipPath>
      <clipPath id="clip2_18_2200">
        <rect
          width={4.76389}
          height={4.76389}
          fill="white"
          transform="translate(75.123 8.90723)"
        />
      </clipPath>
      <clipPath id="clip3_18_2200">
        <rect
          width={4.76389}
          height={4.76389}
          fill="white"
          transform="translate(82.2676 8.90723)"
        />
      </clipPath>
      <clipPath id="clip4_18_2200">
        <rect
          x={330.49}
          y={49.6846}
          width={77.9618}
          height={108.95}
          rx={9.52778}
          fill="white"
        />
      </clipPath>
      <clipPath id="clip5_18_2200">
        <rect
          x={330.49}
          y={171.358}
          width={77.9618}
          height={121.674}
          rx={9.52778}
          fill="white"
        />
      </clipPath>
      <clipPath id="clip6_18_2200">
        <rect
          x={420.928}
          y={142.729}
          width={77.9618}
          height={135.988}
          rx={9.52778}
          fill="white"
        />
      </clipPath>
      <clipPath id="clip7_18_2200">
        <rect
          x={443.041}
          y={40.1113}
          width={166.736}
          height={357.292}
          rx={9.52778}
          fill="white"
        />
      </clipPath>
      <clipPath id="clip8_18_2200">
        <rect
          x={458.285}
          y={156.827}
          width={57.1667}
          height={78.1278}
          rx={9.52778}
          fill="white"
        />
      </clipPath>
    </defs>
  </svg>
