<svg width="695" height="695" viewBox="0 0 695 695" fill="none" xmlns="http://www.w3.org/2000/svg">
<circle cx="347.666" cy="347.915" r="238.625" transform="rotate(154.848 347.666 347.915)" stroke="#475569" stroke-width="2.85521" stroke-miterlimit="3.8637" stroke-dasharray="2.86 28.55"/>
<g filter="url(#filter0_f_18_2079)">
<circle cx="347.666" cy="347.915" r="204.263" transform="rotate(154.848 347.666 347.915)" fill="url(#paint0_linear_18_2079)"/>
</g>
<path d="M217.907 558.317C215.448 553.08 217.7 546.842 222.936 544.383C228.173 541.924 234.411 544.176 236.87 549.413C239.329 554.649 237.077 560.888 231.84 563.347C226.604 565.805 220.365 563.554 217.907 558.317Z" fill="#2AC6E2"/>
<circle cx="129.384" cy="252.714" r="6.11042" transform="rotate(154.848 129.384 252.714)" fill="#963BFA"/>
<circle cx="574.363" cy="276.189" r="10.475" transform="rotate(154.848 574.363 276.189)" fill="#617FEE"/>
<defs>
<filter id="filter0_f_18_2079" x="0.595123" y="0.84317" width="694.142" height="694.143" filterUnits="userSpaceOnUse" color-interpolation-filters="sRGB">
<feFlood flood-opacity="0" result="BackgroundImageFix"/>
<feBlend mode="normal" in="SourceGraphic" in2="BackgroundImageFix" result="shape"/>
<feGaussianBlur stdDeviation="71.3802" result="effect1_foregroundBlur_18_2079"/>
</filter>
<linearGradient id="paint0_linear_18_2079" x1="143.403" y1="143.652" x2="603.061" y2="482.897" gradientUnits="userSpaceOnUse">
<stop stop-color="#C1EBF3"/>
<stop offset="1" stop-color="#E4D0F4"/>
</linearGradient>
</defs>
</svg>
