<svg width="643" height="695" viewBox="0 0 643 695" fill="none" xmlns="http://www.w3.org/2000/svg">
<circle cx="347.247" cy="347.727" r="238.625" transform="rotate(132.855 347.247 347.727)" stroke="#475569" stroke-width="2.85521" stroke-miterlimit="3.8637" stroke-dasharray="2.86 28.55"/>
<g filter="url(#filter0_f_18_2143)">
<circle cx="347.247" cy="347.727" r="204.263" transform="rotate(132.855 347.247 347.727)" fill="url(#paint0_linear_18_2143)"/>
</g>
<path d="M305.726 591.411C301.485 587.476 301.237 580.849 305.172 576.608C309.107 572.367 315.734 572.118 319.975 576.053C324.216 579.988 324.465 586.616 320.53 590.857C316.595 595.098 309.967 595.346 305.726 591.411Z" fill="#2AC6E2"/>
<circle cx="109.197" cy="341.201" r="6.11042" transform="rotate(132.855 109.197 341.201)" fill="#963BFA"/>
<circle cx="530.585" cy="196.323" r="10.475" transform="rotate(132.855 530.585 196.323)" fill="#617FEE"/>
<defs>
<filter id="filter0_f_18_2143" x="0.22403" y="0.702545" width="694.048" height="694.048" filterUnits="userSpaceOnUse" color-interpolation-filters="sRGB">
<feFlood flood-opacity="0" result="BackgroundImageFix"/>
<feBlend mode="normal" in="SourceGraphic" in2="BackgroundImageFix" result="shape"/>
<feGaussianBlur stdDeviation="71.3802" result="effect1_foregroundBlur_18_2143"/>
</filter>
<linearGradient id="paint0_linear_18_2143" x1="142.985" y1="143.464" x2="602.642" y2="482.708" gradientUnits="userSpaceOnUse">
<stop stop-color="#C1EBF3"/>
<stop offset="1" stop-color="#E4D0F4"/>
</linearGradient>
</defs>
</svg>
